<svg width="155" height="102" viewBox="0 0 155 102" fill="none" xmlns="http://www.w3.org/2000/svg">
<path d="M24.3772 77.1082C20.6861 77.1082 17.3402 76.52 14.3661 75.3704C11.3654 74.194 8.78962 72.5096 6.66524 70.237C4.54086 67.9911 2.89447 65.2372 1.72606 62.0021C0.557649 58.767 0 55.0506 0 50.8262V0H13.0118V21.817H24.3772L27.0858 33.6613L13.118 33.8218V51.6016C13.118 55.318 14.0475 58.4996 15.9328 61.1465C17.8182 63.7934 20.633 65.1303 24.3772 65.1303V77.135V77.1082Z" fill="#5E1917"/>
<path d="M25.5723 21.817H39.1152L48.2235 61.3069L57.3317 21.817H71.6182L80.7265 61.3069L89.8347 21.817H102.289L89.7285 76.3596H70.6622L63.9439 47.2435L57.2255 76.3596H38.1592L25.5988 21.817H25.5723Z" fill="#5E1917"/>
<path d="M153.619 37.2975C153.38 36.5222 153.088 35.7735 152.769 35.0784C151.282 31.8433 149.291 29.1963 146.821 27.1109C144.325 25.0254 141.51 23.5014 138.377 22.5389C137.607 22.2983 136.836 22.0844 136.04 21.924C136.04 21.924 136.013 21.924 135.987 21.924C133.597 21.3625 131.101 21.0952 128.551 21.0952C126.002 21.0952 121.514 21.6834 118.036 22.8865C115.035 23.9292 112.353 25.373 109.91 27.2446C109.538 27.5387 109.14 27.8328 108.795 28.1536C106.086 30.4797 103.882 33.394 102.183 36.9232C100.483 40.4524 99.6333 44.5164 99.6333 49.0883C99.6333 53.6603 99.6333 49.5429 99.6333 49.7568C99.6333 49.9172 99.6333 50.0776 99.6333 50.238C99.6333 50.3717 99.6333 50.5321 99.6333 50.6658C99.6333 50.9064 99.6599 51.1471 99.6864 51.3609C99.8988 54.1416 100.43 56.8419 101.333 59.4354C102.501 62.7775 104.227 65.7452 106.538 68.3654C108.848 70.9856 111.769 73.0978 115.301 74.702C115.327 74.702 115.38 74.7287 115.433 74.7554C118.939 76.3329 123.028 77.1083 127.649 77.1083C132.269 77.1083 132.588 76.8409 135.084 76.3062C137.58 75.7714 139.864 74.8089 141.962 73.4186V76.4666H154.973V46.682C154.973 43.1528 154.522 40.0246 153.619 37.2708V37.2975ZM127.914 65.8254C118.992 65.8254 111.742 58.5263 111.742 49.5429C111.742 40.5594 118.992 33.2603 127.914 33.2603C136.836 33.2603 128.047 33.2603 128.127 33.2603C128.153 33.2603 128.18 33.2603 128.233 33.2603C128.286 33.2603 128.312 33.2603 128.339 33.2603C130.171 33.2603 131.95 33.6079 133.65 34.303C133.73 34.3298 133.783 34.3565 133.862 34.3832C134.022 34.4367 134.181 34.5169 134.34 34.5971C140.076 37.1104 144.086 42.8587 144.086 49.5429C144.086 56.227 136.836 65.8254 127.914 65.8254Z" fill="#5E1917"/>
<path d="M112.539 5.72162V18.6889H121.037V64.3014C123.134 65.2907 125.445 65.8254 127.914 65.8254C130.384 65.8254 133.039 65.1837 135.217 64.0608V5.72162H112.539Z" fill="#D24E01"/>
<path d="M7.64766 95.3159C8.55052 95.3159 9.37371 95.102 10.1172 94.6742C10.8608 94.2464 11.4715 93.6582 11.9495 92.9363L13.5428 93.9791C13.2507 94.4603 12.8789 94.9148 12.4541 95.3159C12.0292 95.7169 11.5512 96.0378 11.0467 96.3319C10.5421 96.626 10.011 96.8399 9.42682 96.9736C8.84262 97.134 8.25842 97.1874 7.64766 97.1874C6.66513 97.1874 5.76227 97.0003 4.91252 96.626C4.06277 96.2517 3.31924 95.7704 2.68192 95.1287C2.04461 94.4871 1.54007 93.7652 1.19486 92.9096C0.82309 92.054 0.637207 91.1717 0.637207 90.2092C0.637207 89.2467 0.82309 88.3109 1.19486 87.4553C1.56662 86.5998 2.07116 85.8511 2.68192 85.2362C3.31924 84.5945 4.06277 84.1133 4.91252 83.739C5.76227 83.3646 6.66513 83.1775 7.64766 83.1775C8.63018 83.1775 8.84262 83.2577 9.42682 83.3914C10.011 83.5518 10.5421 83.7657 11.0467 84.0331C11.5512 84.3004 12.0026 84.648 12.4275 85.049C12.8524 85.4501 13.1976 85.8779 13.4897 86.3859L11.8964 87.4286C11.445 86.7067 10.8342 86.1185 10.0907 85.6907C9.32061 85.2629 8.49741 85.049 7.6211 85.049C6.7448 85.049 6.26681 85.1827 5.6295 85.4501C5.01874 85.7175 4.46109 86.0918 4.00966 86.5463C3.55823 87.0008 3.18646 87.5623 2.92091 88.1772C2.65537 88.7922 2.52259 89.4873 2.52259 90.2092C2.52259 90.9311 2.65537 91.5728 2.92091 92.1877C3.18646 92.8026 3.55823 93.3374 4.00966 93.8186C4.46109 94.2732 5.01874 94.6475 5.6295 94.9148C6.24026 95.1822 6.90413 95.3159 7.59455 95.3159H7.64766Z" fill="#5E1917"/>
<path d="M18.2695 90.2092C18.2695 89.2467 18.4554 88.3376 18.8272 87.4821C19.1989 86.6265 19.6769 85.8779 20.3142 85.2362C20.9516 84.5945 21.6685 84.1133 22.5448 83.739C23.4211 83.3646 24.2975 83.1775 25.28 83.1775C26.2625 83.1775 27.1654 83.3646 28.0151 83.739C28.8649 84.1133 29.6084 84.5945 30.2457 85.2362C30.883 85.8779 31.361 86.5998 31.7328 87.4821C32.1045 88.3376 32.2904 89.2467 32.2904 90.2092C32.2904 91.1717 32.1045 92.054 31.7328 92.9096C31.361 93.7652 30.883 94.5138 30.2457 95.1287C29.6084 95.7704 28.8914 96.2517 28.0151 96.626C27.1654 97.0003 26.2625 97.1874 25.28 97.1874C24.2975 97.1874 23.3946 97.0003 22.5448 96.626C21.6951 96.2517 20.9516 95.7704 20.3142 95.1287C19.6769 94.4871 19.1989 93.7652 18.8272 92.9096C18.4554 92.054 18.2695 91.1717 18.2695 90.2092ZM20.1815 90.2092C20.1815 90.9044 20.3142 91.5728 20.5798 92.1877C20.8453 92.8026 21.2171 93.3374 21.6685 93.8186C22.12 94.2732 22.6776 94.6475 23.2884 94.9148C23.8991 95.1822 24.563 95.3159 25.28 95.3159C25.997 95.3159 26.6343 95.1822 27.245 94.9148C27.8558 94.6475 28.3869 94.2732 28.8649 93.8186C29.3429 93.3641 29.6881 92.8026 29.9536 92.1877C30.2192 91.5728 30.3519 90.9044 30.3519 90.2092C30.3519 89.5141 30.2192 88.8189 29.9536 88.1772C29.6881 87.5623 29.3163 87.0008 28.8649 86.5463C28.4134 86.0918 27.8558 85.7175 27.245 85.4501C26.6343 85.1827 25.9704 85.049 25.28 85.049C24.5896 85.049 23.9257 85.1827 23.2884 85.4501C22.6776 85.7175 22.12 86.0918 21.6685 86.5463C21.2171 87.0008 20.8453 87.5623 20.5798 88.1772C20.3142 88.7922 20.1815 89.4873 20.1815 90.2092Z" fill="#5E1917"/>
<path d="M37.9733 83.4716H40.018L47.1613 93.7652V83.4716H49.0732V96.8934H47.0551L39.8587 86.4394V96.8934H37.9468V83.4716H37.9733Z" fill="#5E1917"/>
<path d="M62.8019 86.2255C62.6691 86.065 62.4832 85.9313 62.2973 85.7709C62.0849 85.6105 61.8459 85.4768 61.5804 85.3699C61.3148 85.2629 61.0227 85.156 60.704 85.1025C60.3854 85.0223 60.0667 84.9956 59.7481 84.9956C58.978 84.9956 58.3938 85.156 57.9689 85.4768C57.544 85.7977 57.3316 86.2522 57.3316 86.8137C57.3316 87.3751 57.3847 87.3751 57.5175 87.589C57.6503 87.8029 57.8096 87.9901 58.022 88.1772C58.2345 88.3376 58.5 88.4981 58.7656 88.605C59.0577 88.7387 59.3498 88.8456 59.6684 88.9526C60.173 89.1397 60.7306 89.3002 61.2883 89.514C61.8725 89.7012 62.377 89.9418 62.8815 90.2359C63.3595 90.53 63.7578 90.9044 64.0765 91.3589C64.3952 91.8134 64.5545 92.4283 64.5545 93.1502C64.5545 93.8721 64.4483 94.2999 64.2093 94.7812C63.9703 95.2624 63.6516 95.6635 63.2267 96.011C62.8019 96.3586 62.2973 96.5992 61.7131 96.7864C61.1289 96.9736 60.4916 97.0538 59.7746 97.0538C59.0577 97.0538 58.6328 97.0003 58.1017 96.8933C57.5706 96.7864 57.0926 96.626 56.6677 96.4388C56.2428 96.2517 55.8711 96.0645 55.5524 95.8506C55.2338 95.6367 54.9948 95.4496 54.8354 95.2624L56.0039 93.8454C56.1366 93.9791 56.296 94.1127 56.535 94.2732C56.7739 94.4336 57.0395 94.5673 57.3847 94.7277C57.7299 94.8881 58.0751 94.995 58.4734 95.102C58.8718 95.2089 59.3232 95.2624 59.7746 95.2624C60.6244 95.2624 61.3148 95.0753 61.8193 94.7277C62.3239 94.3801 62.5894 93.8988 62.5894 93.2839C62.5894 92.669 62.5098 92.6422 62.3504 92.4283C62.1911 92.1877 61.9787 91.9738 61.7131 91.8134C61.4476 91.6262 61.1289 91.4926 60.7837 91.3321C60.4385 91.1985 60.0667 91.0648 59.6684 90.9578C59.1639 90.7974 58.6593 90.6102 58.1548 90.4498C57.6503 90.2627 57.1723 90.022 56.7474 89.7279C56.3225 89.4338 55.9773 89.0595 55.7118 88.6317C55.4462 88.1772 55.3134 87.6425 55.3134 87.0008C55.3134 86.3591 55.4197 85.8779 55.6321 85.4234C55.8445 84.9421 56.1366 84.5678 56.535 84.2202C56.9333 83.8726 57.3847 83.632 57.9424 83.4716C58.5 83.2844 59.0842 83.2042 59.7481 83.2042C60.4119 83.2042 61.5007 83.3646 62.2708 83.6587C63.0409 83.9528 63.5985 84.3539 63.9968 84.8351L62.7753 86.2522L62.8019 86.2255Z" fill="#5E1917"/>
<path d="M70.1044 83.4716H72.0163V91.4391C72.0163 92.0273 72.1225 92.562 72.3084 93.0433C72.4943 93.5246 72.7599 93.9256 73.0785 94.2465C73.3972 94.5673 73.822 94.8347 74.2735 95.0218C74.7515 95.209 75.256 95.2892 75.8402 95.2892C76.4244 95.2892 76.9289 95.209 77.3804 95.0218C77.8584 94.8347 78.2567 94.5673 78.5753 94.2465C78.9206 93.9256 79.1861 93.4978 79.3454 93.0433C79.5313 92.562 79.611 92.0273 79.611 91.4391V83.4716H81.5229V91.4659C81.5229 92.3749 81.3636 93.177 81.0715 93.8721C80.7794 94.5673 80.3545 95.1822 79.8234 95.6635C79.2923 96.1447 78.7081 96.5191 78.0177 96.7864C77.3273 97.0538 76.5837 97.1875 75.8137 97.1875C75.0436 97.1875 74.3 97.0538 73.5831 96.7864C72.8926 96.5191 72.2819 96.1447 71.7508 95.6635C71.2197 95.1822 70.8214 94.5673 70.5027 93.8721C70.2106 93.177 70.0513 92.3749 70.0513 91.4659V83.4716H70.1044Z" fill="#5E1917"/>
<path d="M97.1903 96.8934H88.082V83.4716H89.994V95.0753H97.2169V96.8934H97.1903Z" fill="#5E1917"/>
<path d="M109.724 85.2897H105.502V96.8934H103.59V85.2897H99.3413V83.4716H109.724V85.2897Z" fill="#5E1917"/>
<path d="M117.213 96.8934H115.301V83.4716H117.213V96.8934Z" fill="#5E1917"/>
<path d="M123.745 83.4716H125.79L132.933 93.7652V83.4716H134.845V96.8934H132.827L125.63 86.4394V96.8934H123.718V83.4716H123.745Z" fill="#5E1917"/>
<path d="M154.336 90.7707C154.309 91.7332 154.123 92.5888 153.831 93.3641C153.513 94.1395 153.061 94.8079 152.477 95.3961C151.893 95.9576 151.202 96.4121 150.379 96.7062C149.556 97.027 148.627 97.1874 147.591 97.1874C146.555 97.1874 145.706 97.0003 144.856 96.626C144.006 96.2517 143.263 95.7704 142.625 95.1287C141.988 94.4871 141.51 93.7652 141.138 92.9096C140.766 92.054 140.581 91.1717 140.581 90.2092C140.581 89.2467 140.766 88.3109 141.138 87.4553C141.51 86.5998 141.988 85.8511 142.625 85.2362C143.263 84.5945 144.006 84.1133 144.856 83.739C145.706 83.3646 146.635 83.1775 147.591 83.1775C148.547 83.1775 148.786 83.2577 149.37 83.4181C149.954 83.5785 150.485 83.7924 150.99 84.0598C151.495 84.3272 151.946 84.6747 152.371 85.0758C152.796 85.4768 153.141 85.9314 153.433 86.4126L151.84 87.4286C151.388 86.7067 150.804 86.1185 150.034 85.6907C149.291 85.2629 148.441 85.049 147.538 85.049C146.635 85.049 146.184 85.1827 145.546 85.4501C144.936 85.7175 144.378 86.0918 143.926 86.5463C143.475 87.0008 143.103 87.5623 142.838 88.1772C142.572 88.7922 142.439 89.4873 142.439 90.2092C142.439 90.9311 142.572 91.5728 142.838 92.1877C143.103 92.8026 143.475 93.3374 143.926 93.8186C144.378 94.2732 144.936 94.6475 145.546 94.9148C146.157 95.1822 146.821 95.3159 147.511 95.3159C148.786 95.3159 149.822 95.0218 150.671 94.4336C151.521 93.8454 152.026 92.9898 152.212 91.8134H147.538V90.0755H154.283V90.7707H154.336Z" fill="#5E1917"/>
</svg>
